<svg width="17" height="13" viewBox="0 0 17 13" fill="none" xmlns="http://www.w3.org/2000/svg">
<path d="M16.6632 2.28839L6.66325 12.2884C6.57615 12.3758 6.47266 12.4451 6.3587 12.4925C6.24475 12.5398 6.12257 12.5641 5.99918 12.5641C5.8758 12.5641 5.75362 12.5398 5.63967 12.4925C5.52571 12.4451 5.42222 12.3758 5.33512 12.2884L0.960122 7.91339C0.872916 7.82619 0.803741 7.72266 0.756545 7.60872C0.70935 7.49478 0.685059 7.37266 0.685059 7.24933C0.685059 7.126 0.70935 7.00388 0.756545 6.88994C0.803741 6.776 0.872916 6.67248 0.960122 6.58527C1.04733 6.49806 1.15086 6.42889 1.2648 6.38169C1.37874 6.3345 1.50086 6.3102 1.62418 6.3102C1.74751 6.3102 1.86963 6.3345 1.98357 6.38169C2.09751 6.42889 2.20104 6.49806 2.28825 6.58527L5.99997 10.297L15.3367 0.961831C15.5128 0.785711 15.7517 0.686768 16.0007 0.686768C16.2498 0.686768 16.4887 0.785711 16.6648 0.961831C16.8409 1.13795 16.9399 1.37682 16.9399 1.62589C16.9399 1.87497 16.8409 2.11384 16.6648 2.28996L16.6632 2.28839Z" fill="white"/>
</svg>
