<svg width="20" height="16" viewBox="0 0 20 16" fill="none" xmlns="http://www.w3.org/2000/svg">
<path d="M18.75 6.4375H18.1094L16.0219 1.74063C15.8991 1.46435 15.6989 1.22961 15.4454 1.06487C15.1919 0.900127 14.8961 0.812462 14.5938 0.8125H5.40625C5.10393 0.812462 4.8081 0.900127 4.55461 1.06487C4.30112 1.22961 4.10087 1.46435 3.97812 1.74063L1.89062 6.4375H1.25C1.00136 6.4375 0.762903 6.53627 0.587087 6.71209C0.411272 6.8879 0.3125 7.12636 0.3125 7.375C0.3125 7.62364 0.411272 7.8621 0.587087 8.03791C0.762903 8.21373 1.00136 8.3125 1.25 8.3125H1.5625V14.25C1.5625 14.6644 1.72712 15.0618 2.02015 15.3549C2.31317 15.6479 2.7106 15.8125 3.125 15.8125H5C5.4144 15.8125 5.81183 15.6479 6.10485 15.3549C6.39788 15.0618 6.5625 14.6644 6.5625 14.25V13.3125H13.4375V14.25C13.4375 14.6644 13.6021 15.0618 13.8951 15.3549C14.1882 15.6479 14.5856 15.8125 15 15.8125H16.875C17.2894 15.8125 17.6868 15.6479 17.9799 15.3549C18.2729 15.0618 18.4375 14.6644 18.4375 14.25V8.3125H18.75C18.9986 8.3125 19.2371 8.21373 19.4129 8.03791C19.5887 7.8621 19.6875 7.62364 19.6875 7.375C19.6875 7.12636 19.5887 6.8879 19.4129 6.71209C19.2371 6.53627 18.9986 6.4375 18.75 6.4375ZM5.60938 2.6875H14.3906L16.057 6.4375H3.94297L5.60938 2.6875ZM16.5625 13.9375H15.3125V12.375C15.3125 12.1264 15.2137 11.8879 15.0379 11.7121C14.8621 11.5363 14.6236 11.4375 14.375 11.4375H5.625C5.37636 11.4375 5.1379 11.5363 4.96209 11.7121C4.78627 11.8879 4.6875 12.1264 4.6875 12.375V13.9375H3.4375V8.3125H16.5625V13.9375Z" fill="#395DAB"/>
</svg>
